<svg height="64" viewBox="0 0 64 64" width="64" xmlns="http://www.w3.org/2000/svg" xmlns:xlink="http://www.w3.org/1999/xlink"><defs><circle id="a" cx="18" cy="18" r="18"/><mask id="b" fill="#fff"><use fill="#fff" fill-rule="evenodd" xlink:href="#a"/></mask></defs><g fill="none" fill-rule="evenodd"><g transform="translate(13 22)"><use fill="#5ea7ff" xlink:href="#a"/><path d="m27.4995846 12.7538974s-4.3710152-1.7838467-5.6729673-.8919234c-1.3019522.8919234-.6064291 5.1034555-.6064291 5.1034555s-1.9403764 2.7809049-.9701882 4.2435272 3.6651553.9598513 5.1792591 2.2499899c1.5141039 1.2901386.8850322 3.6055953.8850322 3.6055953l-.3662202 2.703335s4.0554948-1.8173185 5.2240522-4.4354975.7900314-6.7228969.7900314-6.7228969l2.367141-2.146129 2.0815829-6.75046962-7.3046506-2.36236295-.8047984-3.60052093-5.22356 1.48063215-.47205 3.92702238 4.0120283 1.32835557zm-28.85767405 2.2763323s1.47745592-.9419882 1.67465302-.9569782c1.51287308-.1150015 6.78472116.2066133 8.16311076-1.7917189 1.55805727-2.258807 2.85683017-5.24986328 2.85683017-5.24986328l-.052186-2.30135501-8.14665569-1.99928748z" fill="#e8e8e8" mask="url(#b)"/></g><path d="m47 30v-12h-32v12c0 1.6568542 7.163444 3 16 3s16-1.3431458 16-3z" fill="#595959"/><path d="m7 17.907 24.718-8.907 24.302 8.907-24.302 7.394z" fill="#868686"/><g fill-rule="nonzero"><path d="m20.967 17.792-.383-1.963-7.584 2.547v16.72h2v-15.073z" fill="#f1be27"/><path d="m13.135 33.631-2.853 5.615 1.783.906 2.853-5.615z" fill="#ff462b"/><path d="m13.202 34.629 2.611 5.044 1.776-.919-2.611-5.044z" fill="#ff462b"/><path d="m13.116 34.594-.005 7.571 2 .001.005-7.571z" fill="#ff462b"/></g></g></svg>